# xmcd
#
# Track frame offsets:
#	150
#	14130
#	68522
#	94925
#	160662
#	174350
#
# Disc length: 3411 seconds
#
# Revision: 0
# Processed by: cddbd v1.4PL0 Copyright (c) Steve Scherf et al.
# Submitted via: EasyCDDAExtractor 4.6.0.1
#
DISCID=420d5106
DTITLE=Yonder Mountain String Band - Mountain Tracks: Vol 1
DYEAR=2000
DGENRE=Country
TTITLE0=Sharecropper's Son
TTITLE1=Keep on Going
TTITLE2=My Gal
TTITLE3=Snow on the Pines
TTITLE4=Wiskey Before Breakfast
TTITLE5=If You're Ever in Oklahoma
EXTD=
EXTT0=
EXTT1=
EXTT2=
EXTT3=
EXTT4=
EXTT5=
PLAYORDER=
